<?xml version="1.0" encoding="UTF-8"?>
<svg xmlns="http://www.w3.org/2000/svg" viewBox="0 0 836.7384902352 946.0638297872">
  <defs>
    <style>
      .cls-1 {
        fill: #5e5e5e;
      }

      .cls-1, .cls-2, .cls-3, .cls-4, .cls-5, .cls-6, .cls-7, .cls-8, .cls-9 {
        stroke: #000;
        stroke-miterlimit: 10;
      }

      .cls-1, .cls-2, .cls-4, .cls-5, .cls-7, .cls-8, .cls-9 {
        stroke-width: 5px;
      }

      .cls-10, .cls-3, .cls-4 {
        fill: #fff;
      }

      .cls-2 {
        fill: #efe6e6;
      }

      .cls-3 {
        stroke-width: 4px;
      }

      .cls-11 {
        isolation: isolate;
      }

      .cls-5 {
        fill: #999;
      }

      .cls-6 {
        fill: #3bb449;
        stroke-width: 2px;
      }

      .cls-12 {
        fill: #e0e0e0;
        mix-blend-mode: multiply;
      }

      .cls-7 {
        fill: #e5e5e5;
      }

      .cls-8 {
        fill: none;
      }

      .cls-9 {
        fill: #c9c9c9;
      }
    </style>
  </defs>
  <g class="cls-11">
    <g id="Capa_1" data-name="Capa 1">
      <path class="cls-7" d="M812.9900319494,650.2757833757s25.1064029095,18.4474273548,20.7380156544,49.7825978752c-3.3875002134,24.2991041379-21.7004562389,34.4014792979-29.7537221052,37.7131564871-1.7282613707.7106984735-3.5927152961-.6508912893-3.4650325328-2.515208.8109142362-11.8402901267,1.4478666266-47.0137225232-19.2255106758-50.2216603804-19.7096791744-3.0583984926-19.5114496424,16.4813696544-18.5733991789,24.7556827058.1979736278,1.7462768114-1.4429741219,3.1206335421-3.1246368753,2.6100587256-11.9400742982-3.6251627927-47.1027284264-18.526691644-14.8463239225-62.1246274133"/>
      <path class="cls-9" d="M689.1663116114,520.6377873025c-23.2344891572-69.4262049176,3.0850846368-80.6231689241,3.0850846368-80.6231689241-21.4524461722-9.1374532397-40.0047691265-12.7772682123-50.2854429861-14.3828667259l-7.0191447515,68.0560025176s27.0004678272,5.4723952663,54.2195031008,26.9500331324Z"/>
      <path class="cls-2" d="M689.1663116114,520.6377873025c28.1605171144,22.2173809277,56.5564303424,61.5496190477,55.5729281404,129.6392275929,7.3469446142,2.9842152472,20.2671538842,7.120014141,36.7011170433,6.6492732207,13.7608217212-.386700198,24.6803692528-3.8584337259,31.548158613-6.6492732207,1.2357269828-12.9622296312,8.2548204274-102.4286066529-58.7167591918-168.7949699346-20.3512459134-20.1746988282-42.4004940896-33.1200997922-62.0203599681-41.4674265824,0,0-26.319573794,11.1969640065-3.0850846368,80.6231689241Z"/>
      <path class="cls-7" d="M689.1663259774,520.6377955116c0,.0084061245.0084061245.016812249.0084061245.0252183735"/>
      <path class="cls-7" d="M23.7484582858,653.7444536363s-25.1064029095,18.4474273548-20.7380156544,49.7825978752c3.3875002134,24.2991041379,21.7004562389,34.4014792979,29.7537221052,37.7131564871,1.7282613707.7106984735,3.5927152961-.6508912893,3.4650325328-2.515208-.8109142362-11.8402901267-1.4478666266-47.0137225232,19.2255106758-50.2216603804,19.7096791744-3.0583984926,19.5114496424,16.4813696544,18.5733991789,24.7556827058-.1979736278,1.7462768114,1.4429741219,3.1206335421,3.1246368753,2.6100587256,11.9400742982-3.6251627927,47.1027284264-18.526691644,14.8463239225-62.1246274133"/>
      <path class="cls-9" d="M147.5721786238,524.1064575631c23.2344891572-69.4262049176-3.0850846368-80.6231689241-3.0850846368-80.6231689241,21.4524461722-9.1374532397,40.0047691265-12.7772682123,50.2854429861-14.3828667259l7.0191447515,68.0560025176s-27.0004678272,5.4723952663-54.2195031008,26.9500331324Z"/>
      <path class="cls-2" d="M147.5721786238,524.1064575631c-28.1605171144,22.2173809277-56.5564303424,61.5496190477-55.5729281404,129.6392275929-7.3469446142,2.9842152472-20.2671538842,7.120014141-36.7011170433,6.6492732207-13.7608217212-.386700198-24.6803692528-3.8584337259-31.548158613-6.6492732207-1.2357269828-12.9622296312-8.2548204274-102.4286066529,58.7167591918-168.7949699346,20.3512459134-20.1746988282,42.4004940896-33.1200997922,62.0203599681-41.4674265824,0,0,26.319573794,11.1969640065,3.0850846368,80.6231689241Z"/>
      <path class="cls-7" d="M147.5721642579,524.1064657722c0,.0084061245-.0084061245.016812249-.0084061245.0252183735"/>
      <path class="cls-2" d="M183.1273810814,312.6784916848h-32.9085288488c-7.9970542121,0-14.4799475534-10.4785830379-14.4799475534-23.4045702798v-53.1908594404c0-12.9259872419,6.4828933413-23.4045702798,14.4799475534-23.4045702798h32.9085288488"/>
      <path class="cls-2" d="M644.9238586184,312.6784916848h32.9085288488c7.9970542121,0,14.4799475535-10.4785830379,14.4799475535-23.4045702798v-53.1908594404c0-12.9259872419-6.4828933413-23.4045702798-14.4799475535-23.4045702798h-32.9085288488"/>
      <path class="cls-2" d="M194.4488303066,410.4574468085s26.0290745636,533.1063829787,224.4255319149,533.1063829787,224.4255319149-533.1063829787,224.4255319149-533.1063829787"/>
      <path class="cls-5" d="M642.6063829787,410.4574468085c0,3.1737866906-100.3234854118,18.3829787234-224.0787763361,18.3829787234s-224.0787763361-15.2091920328-224.0787763361-18.3829787234,100.3234854118-16.3404255319,224.0787763361-16.3404255319,224.0787763361,13.1666388413,224.0787763361,16.3404255319Z"/>
      <ellipse class="cls-2" cx="414.378846337" cy="262.6784916848" rx="243.5450122814" ry="152.4598061875"/>
      <ellipse class="cls-1" cx="410.8743622215" cy="262.6784916848" rx="196.3692102971" ry="122.9276324021"/>
      <circle class="cls-4" cx="418.8743622215" cy="578.6914893617" r="92.9361702128"/>
      <path class="cls-8" d="M414.378846337,110.2186854972c.3387817463-55.3357067738,47.3175051506-75.7612386887,47.3175051506-75.7612386887"/>
      <circle class="cls-7" cx="487.2071504824" cy="28.0106382979" r="25.5107186463"/>
      <g>
        <path class="cls-6" d="M357.0892778631,586.9839010669l7.1047197879-13.155324539-5.880212003-3.1757841403c-.020229276-.0108926871-.0304146458-.0188853731-.0322536709-.0190975683-.0087707351-.0253926926-.0077804908-.0969732078.0254634244-.1568829868.0175414701-.0314756218.0244731801-.0401048934.0803512502-.0485219698l25.2996096672-4.1760015957c.0110341506-.0017682934.0172585432-.0017682934.018107324-.0021926838.0065073196.0042439041.0240487897.0207243982.0420146502.0560195336l10.4110039781,23.347484531c.0280097668.0646488052.0268780591.0956293048-.0041024406.1482537152-.0459756273.0775219808-.119819558.115292727-.1387756628.1172732155-.0028292694-.0004243904-.0132975661-.0033951232-.0305561092-.0118829314l-5.8466851609-3.1919817075-16.0887817574,29.8224796881c-.6591313494,1.2225626623-1.1386836668,2.5327265775-1.439770977,3.8824295323l-1.5824545681-2.6480193045-.2796732776-.4664050563-.0002298781.0001414635-11.4112037506-19.1091682774c-2.0756934761-3.4594891268-2.1676447307-7.6514760944-.2465708259-11.2128189187ZM407.6962776883,635.0123047848c0,.0387609904-.0408829425.0796439329-.0796439329.0796439329h-21.7592034363c-3.9966259174,0-7.7281492945-2.0889910421-9.7367890864-5.4494557408l-.1702512846-.284889743c-1.8177083165-3.2705469814-1.856319002-7.4555315074-.0763195414-10.756899842l5.7741320844-10.7029845775h25.9684312642c.0387609904,0,.0796439329.0408829425.0796439329.0796439329v27.0349420376Z"/>
        <path class="cls-6" d="M445.7805068747,579.6580738774c-.1151512635-.2161561802-.0780878347-.4202879655-.0458341639-.5227075168.0384780635-.1218000465.1266098045-.2885854761.3267806127-.3900147832l23.0947600442-11.6916020284.0158439085-.0081341494c.3052781654-.1575195724.6811466017-.032748793.8581174011.2839879134l10.675965055,19.7459660817c1.8598379058,3.4373500939,1.7656055527,7.6629523183-.2468891187,11.0289517752l-.002935367-.0017329275-.0189561048.031687817c-1.9732739247,3.293552478-5.728987555,5.4201728028-9.5776426841,5.4201728028l-12.1628168426-.0028646352-12.9163927403-23.8937103495ZM461.6842544151,629.5586051399c-2.0547568827,3.4630257135-5.7006948612,5.5305143084-9.7519256775,5.5305143084l-14.9545276655-.0087707351v6.6790562107c0,.0241902531-.002404879.0372048923-.0016975616.0386195269-.0179658605.020229276-.0830390561.0548878259-.1543366443.0548878259h-.0012731712c-.040458552-.0002829269-.0522000199-.004526831-.0851610082-.0479561159l-15.6744352576-20.2981687317c-.0035365867-.004526831-.0055170753-.0077804908-.0065073196-.0087707351.0008487808-.0063658561.0049512214-.0256048878.0253219609-.0547463624l15.6222352377-20.2499296889c.0432878214-.0557366067.067902465-.0670536842.1281659026-.0657805129.0888390583.0042439041.1551854252.0509268487.1657951853.0673366111.0001414635,0,.0036780502.0099024428.004526831.0342341594l-.0336683055,6.6632123022,2.1833471757.0005658539s31.7016804062.0074975638,31.70917797.0074975638c1.3863419931,0,2.7639132512-.1987561735,4.0919722953-.5729270482l-.5083489747.8518045938-.0593439251.0993957697.0000353659.0000176829-12.6993524135,21.2799075215Z"/>
        <path class="cls-6" d="M445.808658105,521.0709075883l7.7776615085,13.0716488972,5.7346460937-3.4386232651c.0195219587-.0116000044.0309804996-.0157731768.031687817-.016763421.027160986.0041024406.0944975971.0432170897.1341073683.1082195535.0240487897.0395390395.0273024495.058565876.0007073173.1251244381l-9.3931743209,23.804906657c-.011458541.0287170841-.0212195203.0406707472-.0210780568.0415902598-.0033951233.0012024395-.0195219587.0057292705-.0509268487.003182928l-25.3946731182-3.039271893c-.0598390473-.0074975638-.0799268598-.0197341539-.1072293093-.0653561225-.0393268443-.0657805129-.0455512369-.1447878602-.0384780635-.1785976292.0033951232-.0024756107.0082048812-.0057292705.0147122007-.0095487841l5.7476607328-3.4127354504-17.4748408236-29.3068453448c-.7098636859-1.1930321632-1.5876445091-2.2767130651-2.5918936733-3.2273475747h25.8688586652c4.032416175,0,7.6833053749,2.073571524,9.7622525107,5.5404167512ZM378.348832328,540.2642466295l11.486692194-19.2816122457c2.0121498542-3.363179029,5.6919683335-5.4525148883,9.6036719623-5.4525679371v.0004243904c3.8592648893,0,7.6257297431,2.13906911,9.5956085446,5.4495972043l.6317758512,1.0617540642h.0049512214c1.1316370178,1.8932321259,3.5991312533,6.0289696818,5.5990710419,9.3823965729l-13.9324010554,23.3495622757c-.1208098023.2013732477-.3062684097.2704074204-.4061416186.293678161-.117414679.0275146447-.2949513322.0358609893-.4734782297-.079078079l-21.9153791058-13.8434735824c-.2925464532-.1846805584-.3771416075-.5728563165-.194370806-.8806808243Z"/>
      </g>
      <path class="cls-12" d="M468.2313145047,45.0577463388s37.2223306862,8.8157177731,37.726662558-34.3390993892l5.0913159398,8.2103784473,1.6686564748,9.081612901-1.6754007063,9.0945563752-2.8511637418,5.4073509234-4.7977336264,5.2153535393-3.395506104,2.3515471547-7.3230704069,3.4418303052h-10.4680851064l-6.9970359477-2.9941736524-6.9786393331-5.4693566045Z"/>
      <path class="cls-12" d="M414.378846337,943.5638297872s148.7595146784-116.5933064399,167.4002120421-523.2328234327l60.8273245995-9.873559546-3.5738092418,52.0038612646-4.5155342912,43.7815751019-5.5956910133,44.4079677445-8.4331778765,52.9037979426-8.5780848834,44.510672925-14.2030073011,60.0368029137-15.2724102185,51.252953942-11.147125001,31.0072647758-14.9819712773,34.9924187521-19.0617957575,35.5527150082-20.614406072,29.4140828749-15.9009415993,17.3761787199-11.0158455028,9.6964447293-14.6865770322,10.2577415762-27.9466756999,12.1221838992-32.700483874,3.7897208089Z"/>
      <circle class="cls-3" cx="490.696402507" cy="237.2021276596" r="50.0001574797"/>
      <circle class="cls-3" cx="339.8448037799" cy="237.2021276596" r="50.0001574797"/>
      <polygon class="cls-12" points="657.9238586184 262.6784916848 692.3123350207 262.6784916848 692.3123350207 289.273921405 690.4581883114 300.729297318 683.4487833641 310.85189703 668.6180968196 312.6784916848 657.2708195727 312.6784916848 648.079330211 312.6784916848 646.2792627943 309.3880473432 649.322804285 302.9802871026 653.612378077 291.385706579 655.7742716569 283.0117557327 656.7520192786 277.7167010815 657.5045221716 271.676459149 657.8671443999 265.9325624025 657.9238586184 262.6784916848"/>
      <polygon class="cls-12" points="170.8050831693 262.2021276587 136.416606767 262.2021276587 136.416606767 288.7975573789 138.2707534763 300.2529332919 145.2801584237 310.3755330039 160.1108449682 312.2021276587 171.458122215 312.2021276587 180.6496115767 312.2021276587 182.4496789935 308.9116833172 179.4061375028 302.5039230766 175.1165637107 290.9093425529 172.9546701309 282.5353917066 171.9769225092 277.2403370555 171.2244196161 271.2000951229 170.8617973878 265.4561983764 170.8050831693 262.2021276587"/>
      <path class="cls-10" d="M289.3983918546,189.2648471448c7.4869493082,7.1427625604-9.7665518594,11.0723297136-21.469693593,23.3394081955-11.7031417336,12.2670784819-13.4241823447,28.2263752299-20.9111316528,21.0836126695s-4.0690500319-22.877547636,7.6340917017-35.1446261178c11.7031417336-12.2670784819,27.259784236-16.4211573075,34.7467335442-9.2783947471Z"/>
      <path class="cls-10" d="M522.030713638,534.7742030694c-9.2586286575,7.4958260028-11.2148789144-12.7975546836-23.5103068969-27.9845136817-12.2954279825-15.1869589982-30.2740052488-19.5165038954-21.0153765914-27.0123298982,9.2586286575-7.4958260028,26.731643918-1.2609308068,39.0270719005,13.9260281914,12.2954279825,15.1869589982,14.7572402453,33.5749893858,5.4986115878,41.0708153885Z"/>
    </g>
  </g>
</svg>