<?xml version="1.0" encoding="UTF-8"?>
<svg id="Capa_2" data-name="Capa 2" xmlns="http://www.w3.org/2000/svg" viewBox="0 0 204.8409188102 420.3948610868">
  <defs>
    <style>
      .cls-1 {
        fill: #fff;
      }

      .cls-1, .cls-2, .cls-3 {
        stroke: #000;
        stroke-miterlimit: 10;
        stroke-width: 10px;
      }

      .cls-4, .cls-2 {
        fill: #add8e6;
      }

      .cls-3 {
        fill: none;
      }
    </style>
  </defs>
  <g id="Capa_1-2" data-name="Capa 1">
    <polygon class="cls-4" points="192.3134176428 227.0627830888 12.5275011674 227.8540943409 69.6521869179 55.2778448072 134.5978511753 55.0010982281 192.3134176428 227.0627830888"/>
    <path class="cls-2" d="M192.3134176428,227.0627830888v153.6726451564c0,19.1418761962-15.5175566454,34.6594328417-34.6594328417,34.6594328417H47.186934009c-19.1418761962,0-34.6594328417-15.5175566454-34.6594328417-34.6594328417v-152.8813339043"/>
    <path class="cls-2" d="M134.5978511753,55.0010982281c37.9924479413,17.6108898758,65.243067635,65.5324566712,65.243067635,121.8881916658,0,17.7950151657-2.7170452498,34.749094716-7.6313839355,50.1734931949"/>
    <path class="cls-2" d="M12.5275011674,228.539897426c-4.8892233881-15.390972961-7.5275011674-33.9036570248-7.5275011674-51.6506075321,0-56.063145264,26.9683927448-103.7794726197,64.6521869179-121.6114450867"/>
    <path class="cls-3" d="M86.4780574968,5h31.8848038165c15.5710494134,0,28.2127659555,12.6417165421,28.2127659555,28.2127659555v22.272891928H58.2652915413v-22.272891928c0-15.5710494134,12.6417165421-28.2127659555,28.2127659555-28.2127659555Z"/>
    <path class="cls-1" d="M192.3134520519,355.6444509169c-22.2880859375,6.0140380859-53.0495605469,11.9149169922-89.8929443359,11.9149169922s-67.6049804688-5.9008789062-89.8930664062-11.9149169922v-114.7234191895c24.1473388672,4.9902648926,54.6219482422,9.1914978027,89.8930664062,9.1914978027,35.2709960938,0,65.7456054688-4.2012329102,89.8929443359-9.1914978027v114.7234191895Z"/>
  </g>
</svg>