<?xml version="1.0" encoding="UTF-8"?>
<svg id="Capa_2" data-name="Capa 2" xmlns="http://www.w3.org/2000/svg" viewBox="0 0 264.3292510446 408.3699767682">
  <defs>
    <style>
      .cls-1 {
        stroke-width: 5px;
      }

      .cls-1, .cls-2, .cls-3, .cls-4, .cls-5, .cls-6 {
        stroke-miterlimit: 10;
      }

      .cls-1, .cls-4 {
        fill: none;
        stroke: #9e9e9e;
      }

      .cls-2 {
        fill: #939393;
      }

      .cls-2, .cls-3, .cls-4, .cls-5, .cls-6 {
        stroke-width: 10px;
      }

      .cls-2, .cls-3, .cls-5, .cls-6 {
        stroke: #000;
      }

      .cls-3, .cls-6 {
        fill: silver;
      }

      .cls-4, .cls-6 {
        stroke-linecap: round;
      }

      .cls-5 {
        fill: #f4f4f4;
      }
    </style>
  </defs>
  <g id="Capa_1-2" data-name="Capa 1">
    <path class="cls-6" d="M5.0000207221,108.153207323v270.8918190813c26.3431492157,10.4609951794,70.7323785543,24.3249503639,127.1645893856,24.3249503639s100.8214842228-13.8639551844,127.1646334385-24.3249503639V108.153207323"/>
    <path class="cls-5" d="M259.3292362977,304.7736084589c-27.1426391602,10.2366333008-71.4077758789,23.1873168945-127.1943359375,23.1827392578-55.755859375-.0045776367-99.9982299805-12.9483642578-127.1348876953-23.1827392578v-108.4390258789c31.4506835938,8.5505981445,74.9908447266,16.9814758301,127.1943359375,16.9782714844,52.1753540039-.0032043457,95.6939697266-8.4303283691,127.1348876953-16.9782714844v108.4390258789Z"/>
    <ellipse class="cls-2" cx="132.1646255223" cy="108.1531988873" rx="127.1646255223" ry="17.1380536823"/>
    <ellipse class="cls-3" cx="139.8301343606" cy="60.910633714" rx="31.7035645436" ry="127.1646255223" transform="translate(31.0566350971 167.8260097491) rotate(-68.0445760857)"/>
    <ellipse class="cls-1" cx="142.533126558" cy="61.4372827595" rx="18.6749319379" ry="103.6540998507" transform="translate(32.2605648684 170.662710283) rotate(-68.0445760857)"/>
    <path class="cls-4" d="M24.2587668773,141.0114864186c29.0807762152,6.996307373,65.6594589159,12.8510437012,107.9355890298,12.8510437012s78.8548128146-5.8547363281,107.9355890298-12.8510437012"/>
    <path class="cls-4" d="M24.2587898475,172.3298763112c29.9286019467,6.3519287109,66.3889003009,11.3624572754,107.9355786932,11.3624572754,30.4103740698,0,67.0470792921-2.6844482422,107.9355786932-11.3624572754"/>
    <path class="cls-4" d="M24.1993038106,367.9075435475c26.0461394055,8.5552368164,63.1222423961,17.3755493164,107.9950647302,17.3677368164,44.8156034601-.0078125,81.8481445343-8.8184814453,107.8760926563-17.3677368164"/>
    <path class="cls-4" d="M24.1993038106,340.2236655598c26.0461394055,8.5552368164,63.1222423961,17.3755493164,107.9950647302,17.3677368164,44.8156034601-.0078125,81.8481445343-8.8184814453,107.8760926563-17.3677368164"/>
  </g>
</svg>