<?xml version="1.0" encoding="UTF-8"?>
<svg xmlns="http://www.w3.org/2000/svg" viewBox="0 0 321.0174172043 369.8516958172">
  <defs>
    <style>
      .cls-1 {
        fill: #fff;
        stroke: #000;
        stroke-miterlimit: 10;
        stroke-width: 10px;
      }

      .cls-2 {
        fill: #ededed;
      }

      .cls-2, .cls-3, .cls-4 {
        mix-blend-mode: multiply;
      }

      .cls-5 {
        isolation: isolate;
      }

      .cls-3 {
        fill: #d1d0cf;
      }

      .cls-4 {
        fill: #eaeaea;
      }
    </style>
  </defs>
  <g class="cls-5">
    <g id="Capa_2" data-name="Capa 2">
      <g id="Capa_2-2" data-name="Capa 2">
        <g>
          <g>
            <g>
              <polyline class="cls-1" points="191.8699913833 346.3069918729 31.5762037858 303.3212290107 111.1990629952 6.4078132147 272.1259789411 59.5572842555"/>
              <path class="cls-1" d="M315.54831166,158.4851125943l-67.1589869062-18.0099324402,23.7366541874-80.9178958986c.0264905916-.0903060269.1519003311-.0968655963.1876675285-.0098159695l43.4076161988,105.6447545875-59.0870337879,198.4825048095"/>
              <line class="cls-1" x1="191.8699913833" y1="346.3069918729" x2="261.659440445" y2="365.0223317037"/>
            </g>
            <g>
              <polyline class="cls-1" points="170.9574468085 311.2459235559 5 311.2459235559 5 7.1432767411 170.9574468085 7.1432767411"/>
              <path class="cls-1" d="M241.7659574468,97.7991150453h-69.5319148936l.0693884171-90.4684074179c.0001373281-.179047959.227413215-.2557659991.3360351256-.1134302306l69.1264913509,90.5818376484v218.5479852103"/>
              <line class="cls-1" x1="170.9574468085" y1="311.2459235559" x2="243.2127659574" y2="311.2459235559"/>
            </g>
          </g>
          <path class="cls-2" d="M172.2393945038,90.82125815l.048657874-63.4399882792c.0051146769-6.668500162,8.4698260119-9.5258031201,12.5153634908-4.2246195658l48.4135000452,63.4399882792c3.5019876178,4.5889277416.2296797854,11.2024764611-5.5428564937,11.2024764611h-48.4621579191c-3.8528990457,0-6.9754621336-3.1249589829-6.9725069972-6.9778568953Z"/>
          <polygon class="cls-4" points="186.4621950141 40.305017554 269.7617763298 62.0999537921 272.0328801718 52.5779588984 248.3893247537 140.4751801541 315.54831166 158.4851125943 260.2620074249 364.6475840274 63.7384328579 311.946129406 241.7659574468 311.2459235559 241.7659574468 97.7991150453 186.4621950141 40.305017554"/>
          <path class="cls-3" d="M278.8201649341,69.0967428313l36.7281467259,89.388369763-67.1589869062-18.0099324402,19.0045926724-70.6514251966c1.5014205908-5.5816773549,9.2295130964-6.0733888254,11.426247508-.7270121262Z"/>
        </g>
      </g>
    </g>
  </g>
</svg>