<?xml version="1.0" encoding="UTF-8"?>
<svg id="Capa_2" data-name="Capa 2" xmlns="http://www.w3.org/2000/svg" viewBox="0 0 156.5278049045 426.7234941974">
  <defs>
    <style>
      .cls-1 {
        fill: #d4af37;
      }

      .cls-1, .cls-2, .cls-3, .cls-4, .cls-5 {
        stroke-linecap: round;
        stroke-miterlimit: 10;
      }

      .cls-1, .cls-2, .cls-3, .cls-5 {
        stroke: #000;
        stroke-width: 10px;
      }

      .cls-2 {
        fill: #8b0000;
      }

      .cls-3, .cls-4 {
        fill: none;
      }

      .cls-4 {
        stroke: #fff;
        stroke-width: 5px;
      }

      .cls-5 {
        fill: beige;
      }
    </style>
  </defs>
  <g id="Capa_2-2" data-name="Capa 2">
    <g>
      <path class="cls-2" d="M102.9167028892,145.6997961531c25.4771177121,0,48.6111020153,20.6532471026,48.6111020153,46.1303342971v215.6752818436c-15.0356480107,6.0642103877-40.6337984657,14.2180819035-73.2638719347,14.2180819035-32.6301345042,0-58.2283154767-8.1538715158-73.2639329698-14.2180819035v-215.6752818436c0-25.4770871946,23.1340487292-46.1303342971,48.6111359237-46.1303342971"/>
      <polyline class="cls-2" points="53.6111359237 145.6997961531 53.6111359237 38.361709848 102.9167028892 38.361709848 102.9167028892 145.6997961531"/>
      <rect class="cls-1" x="49.9402634877" y="5" width="56.6473118375" height="34.0851142707" rx="11.7335193407" ry="11.7335193407"/>
      <path class="cls-3" d="M5,210.5951773241c13.7426179263,6.339997805,39.5558868393,16.0850867301,73.2639329698,16.0850867301,33.708015613,0,59.5212540084-9.7450889251,73.2638719347-16.0850867301"/>
      <path class="cls-3" d="M5,313.1989738336c13.7426179263,6.339997805,39.5558868393,16.0850867301,73.2639329698,16.0850867301,33.708015613,0,59.5212540084-9.7450889251,73.2638719347-16.0850867301"/>
      <polygon class="cls-5" points="5 210.5951773241 17.3474573168 215.7239261392 37.0481649461 221.7432028025 60.6981226862 225.791991371 79.754049187 226.6802640542 98.1763190644 225.5363514616 119.5683195381 221.7223250027 137.7198910113 216.2569082674 151.5278049045 210.5951773241 151.5278049045 313.1989738336 139.786606052 318.0996064143 125.4378869529 322.7900053204 110.8467810452 326.2125626483 101.5936841562 327.7158703857 85.5412832296 329.2840605637 78.2639329698 329.2840605637 67.1583045062 329.2840605637 55.6094282018 327.8030845903 42.2026235771 325.5154765345 33.9776572495 323.5745074435 21.6465945263 319.8588855811 9.2706552745 315.0995378327 5 313.1989738336 5 210.5951773241"/>
    </g>
  </g>
  <g id="soombras">
    <path class="cls-4" d="M17.9234766123,399.8294310041c14.606918335,4.2040405273,35.3133392334,8.5106201172,60.340423584,8.5106201172,15.1998596191,0,36.2896575928-1.5885009766,60.340423584-8.5106201172"/>
    <path class="cls-4" d="M104.8580624793,157.102454685s27.6324597888-1.655634083,33.916608495,29.8326116463"/>
  </g>
</svg>