<svg width="405" height="178" viewBox="0 0 405 178" fill="none" xmlns="http://www.w3.org/2000/svg">
<g filter="url(#filter0_d_94_91)">
<rect x="4" width="397" height="170" rx="20" fill="#78C091"/>
</g>
<path d="M160.149 80.69L160.707 88.772H157.359L157.917 80.69H160.149ZM159.033 76.172C159.549 76.172 159.963 76.334 160.275 76.658C160.599 76.982 160.761 77.372 160.761 77.828C160.761 78.272 160.599 78.65 160.275 78.962C159.963 79.274 159.549 79.43 159.033 79.43C158.529 79.43 158.115 79.274 157.791 78.962C157.467 78.65 157.305 78.272 157.305 77.828C157.305 77.372 157.467 76.982 157.791 76.658C158.115 76.334 158.529 76.172 159.033 76.172ZM165.378 86V75.776H161.346V73.4H172.326V75.776H168.294V86H165.378ZM177.321 86.144C176.289 86.144 175.371 85.928 174.567 85.496C173.775 85.064 173.145 84.476 172.677 83.732C172.221 82.976 171.993 82.118 171.993 81.158C171.993 80.186 172.221 79.328 172.677 78.584C173.145 77.828 173.775 77.24 174.567 76.82C175.371 76.388 176.289 76.172 177.321 76.172C178.341 76.172 179.253 76.388 180.057 76.82C180.861 77.24 181.491 77.822 181.947 78.566C182.403 79.31 182.631 80.174 182.631 81.158C182.631 82.118 182.403 82.976 181.947 83.732C181.491 84.476 180.861 85.064 180.057 85.496C179.253 85.928 178.341 86.144 177.321 86.144ZM177.321 83.84C177.789 83.84 178.209 83.732 178.581 83.516C178.953 83.3 179.247 82.994 179.463 82.598C179.679 82.19 179.787 81.71 179.787 81.158C179.787 80.594 179.679 80.114 179.463 79.718C179.247 79.322 178.953 79.016 178.581 78.8C178.209 78.584 177.789 78.476 177.321 78.476C176.853 78.476 176.433 78.584 176.061 78.8C175.689 79.016 175.389 79.322 175.161 79.718C174.945 80.114 174.837 80.594 174.837 81.158C174.837 81.71 174.945 82.19 175.161 82.598C175.389 82.994 175.689 83.3 176.061 83.516C176.433 83.732 176.853 83.84 177.321 83.84ZM196.91 76.172C197.678 76.172 198.356 76.328 198.944 76.64C199.544 76.94 200.012 77.408 200.348 78.044C200.696 78.668 200.87 79.472 200.87 80.456V86H198.062V80.888C198.062 80.108 197.9 79.532 197.576 79.16C197.252 78.788 196.796 78.602 196.208 78.602C195.8 78.602 195.434 78.698 195.11 78.89C194.786 79.07 194.534 79.346 194.354 79.718C194.174 80.09 194.084 80.564 194.084 81.14V86H191.276V80.888C191.276 80.108 191.114 79.532 190.79 79.16C190.478 78.788 190.028 78.602 189.44 78.602C189.032 78.602 188.666 78.698 188.342 78.89C188.018 79.07 187.766 79.346 187.586 79.718C187.406 80.09 187.316 80.564 187.316 81.14V86H184.508V76.316H187.19V78.962L186.686 78.188C187.022 77.528 187.496 77.03 188.108 76.694C188.732 76.346 189.44 76.172 190.232 76.172C191.12 76.172 191.894 76.4 192.554 76.856C193.226 77.3 193.67 77.984 193.886 78.908L192.896 78.638C193.22 77.882 193.736 77.282 194.444 76.838C195.164 76.394 195.986 76.172 196.91 76.172ZM209.327 86V84.11L209.147 83.696V80.312C209.147 79.712 208.961 79.244 208.589 78.908C208.229 78.572 207.671 78.404 206.915 78.404C206.399 78.404 205.889 78.488 205.385 78.656C204.893 78.812 204.473 79.028 204.125 79.304L203.117 77.342C203.645 76.97 204.281 76.682 205.025 76.478C205.769 76.274 206.525 76.172 207.293 76.172C208.769 76.172 209.915 76.52 210.731 77.216C211.547 77.912 211.955 78.998 211.955 80.474V86H209.327ZM206.375 86.144C205.619 86.144 204.971 86.018 204.431 85.766C203.891 85.502 203.477 85.148 203.189 84.704C202.901 84.26 202.757 83.762 202.757 83.21C202.757 82.634 202.895 82.13 203.171 81.698C203.459 81.266 203.909 80.93 204.521 80.69C205.133 80.438 205.931 80.312 206.915 80.312H209.489V81.95H207.221C206.561 81.95 206.105 82.058 205.853 82.274C205.613 82.49 205.493 82.76 205.493 83.084C205.493 83.444 205.631 83.732 205.907 83.948C206.195 84.152 206.585 84.254 207.077 84.254C207.545 84.254 207.965 84.146 208.337 83.93C208.709 83.702 208.979 83.372 209.147 82.94L209.579 84.236C209.375 84.86 209.003 85.334 208.463 85.658C207.923 85.982 207.227 86.144 206.375 86.144ZM223.68 86.144C222.876 86.144 222.156 85.988 221.52 85.676C220.896 85.364 220.41 84.89 220.062 84.254C219.714 83.606 219.54 82.784 219.54 81.788V76.316H222.348V81.374C222.348 82.178 222.516 82.772 222.852 83.156C223.2 83.528 223.686 83.714 224.31 83.714C224.742 83.714 225.126 83.624 225.462 83.444C225.798 83.252 226.062 82.964 226.254 82.58C226.446 82.184 226.542 81.692 226.542 81.104V76.316H229.35V86H226.686V83.336L227.172 84.11C226.848 84.782 226.368 85.292 225.732 85.64C225.108 85.976 224.424 86.144 223.68 86.144ZM237.837 76.172C238.605 76.172 239.289 76.328 239.889 76.64C240.501 76.94 240.981 77.408 241.329 78.044C241.677 78.668 241.851 79.472 241.851 80.456V86H239.043V80.888C239.043 80.108 238.869 79.532 238.521 79.16C238.185 78.788 237.705 78.602 237.081 78.602C236.637 78.602 236.235 78.698 235.875 78.89C235.527 79.07 235.251 79.352 235.047 79.736C234.855 80.12 234.759 80.612 234.759 81.212V86H231.951V76.316H234.633V78.998L234.129 78.188C234.477 77.54 234.975 77.042 235.623 76.694C236.271 76.346 237.009 76.172 237.837 76.172ZM249.836 86V76.1C249.836 75.008 250.16 74.138 250.808 73.49C251.456 72.83 252.38 72.5 253.58 72.5C253.988 72.5 254.378 72.542 254.75 72.626C255.134 72.71 255.458 72.842 255.722 73.022L254.984 75.056C254.828 74.948 254.654 74.864 254.462 74.804C254.27 74.744 254.066 74.714 253.85 74.714C253.442 74.714 253.124 74.834 252.896 75.074C252.68 75.302 252.572 75.65 252.572 76.118V77.018L252.644 78.224V86H249.836ZM248.342 78.692V76.532H255.056V78.692H248.342ZM260.94 86.144C259.908 86.144 258.99 85.928 258.186 85.496C257.394 85.064 256.764 84.476 256.296 83.732C255.84 82.976 255.612 82.118 255.612 81.158C255.612 80.186 255.84 79.328 256.296 78.584C256.764 77.828 257.394 77.24 258.186 76.82C258.99 76.388 259.908 76.172 260.94 76.172C261.96 76.172 262.872 76.388 263.676 76.82C264.48 77.24 265.11 77.822 265.566 78.566C266.022 79.31 266.25 80.174 266.25 81.158C266.25 82.118 266.022 82.976 265.566 83.732C265.11 84.476 264.48 85.064 263.676 85.496C262.872 85.928 261.96 86.144 260.94 86.144ZM260.94 83.84C261.408 83.84 261.828 83.732 262.2 83.516C262.572 83.3 262.866 82.994 263.082 82.598C263.298 82.19 263.406 81.71 263.406 81.158C263.406 80.594 263.298 80.114 263.082 79.718C262.866 79.322 262.572 79.016 262.2 78.8C261.828 78.584 261.408 78.476 260.94 78.476C260.472 78.476 260.052 78.584 259.68 78.8C259.308 79.016 259.008 79.322 258.78 79.718C258.564 80.114 258.456 80.594 258.456 81.158C258.456 81.71 258.564 82.19 258.78 82.598C259.008 82.994 259.308 83.3 259.68 83.516C260.052 83.732 260.472 83.84 260.94 83.84ZM272.087 86.144C270.947 86.144 270.059 85.856 269.423 85.28C268.787 84.692 268.469 83.822 268.469 82.67V74.174H271.277V82.634C271.277 83.042 271.385 83.36 271.601 83.588C271.817 83.804 272.111 83.912 272.483 83.912C272.927 83.912 273.305 83.792 273.617 83.552L274.373 85.532C274.085 85.736 273.737 85.892 273.329 86C272.933 86.096 272.519 86.144 272.087 86.144ZM266.975 78.692V76.532H273.689V78.692H266.975ZM280.258 86.144C279.226 86.144 278.308 85.928 277.504 85.496C276.712 85.064 276.082 84.476 275.614 83.732C275.158 82.976 274.93 82.118 274.93 81.158C274.93 80.186 275.158 79.328 275.614 78.584C276.082 77.828 276.712 77.24 277.504 76.82C278.308 76.388 279.226 76.172 280.258 76.172C281.278 76.172 282.19 76.388 282.994 76.82C283.798 77.24 284.428 77.822 284.884 78.566C285.34 79.31 285.568 80.174 285.568 81.158C285.568 82.118 285.34 82.976 284.884 83.732C284.428 84.476 283.798 85.064 282.994 85.496C282.19 85.928 281.278 86.144 280.258 86.144ZM280.258 83.84C280.726 83.84 281.146 83.732 281.518 83.516C281.89 83.3 282.184 82.994 282.4 82.598C282.616 82.19 282.724 81.71 282.724 81.158C282.724 80.594 282.616 80.114 282.4 79.718C282.184 79.322 281.89 79.016 281.518 78.8C281.146 78.584 280.726 78.476 280.258 78.476C279.79 78.476 279.37 78.584 278.998 78.8C278.626 79.016 278.326 79.322 278.098 79.718C277.882 80.114 277.774 80.594 277.774 81.158C277.774 81.71 277.882 82.19 278.098 82.598C278.326 82.994 278.626 83.3 278.998 83.516C279.37 83.732 279.79 83.84 280.258 83.84ZM296.701 86.144C295.789 86.144 294.967 85.94 294.235 85.532C293.503 85.112 292.921 84.53 292.489 83.786C292.069 83.042 291.859 82.166 291.859 81.158C291.859 80.138 292.069 79.256 292.489 78.512C292.921 77.768 293.503 77.192 294.235 76.784C294.967 76.376 295.789 76.172 296.701 76.172C297.517 76.172 298.231 76.352 298.843 76.712C299.455 77.072 299.929 77.618 300.265 78.35C300.601 79.082 300.769 80.018 300.769 81.158C300.769 82.286 300.607 83.222 300.283 83.966C299.959 84.698 299.491 85.244 298.879 85.604C298.279 85.964 297.553 86.144 296.701 86.144ZM297.187 83.84C297.643 83.84 298.057 83.732 298.429 83.516C298.801 83.3 299.095 82.994 299.311 82.598C299.539 82.19 299.653 81.71 299.653 81.158C299.653 80.594 299.539 80.114 299.311 79.718C299.095 79.322 298.801 79.016 298.429 78.8C298.057 78.584 297.643 78.476 297.187 78.476C296.719 78.476 296.299 78.584 295.927 78.8C295.555 79.016 295.255 79.322 295.027 79.718C294.811 80.114 294.703 80.594 294.703 81.158C294.703 81.71 294.811 82.19 295.027 82.598C295.255 82.994 295.555 83.3 295.927 83.516C296.299 83.732 296.719 83.84 297.187 83.84ZM299.725 86V84.02L299.779 81.14L299.599 78.278V72.644H302.407V86H299.725ZM309.812 86.144C308.708 86.144 307.736 85.928 306.896 85.496C306.068 85.064 305.426 84.476 304.97 83.732C304.514 82.976 304.286 82.118 304.286 81.158C304.286 80.186 304.508 79.328 304.952 78.584C305.408 77.828 306.026 77.24 306.806 76.82C307.586 76.388 308.468 76.172 309.452 76.172C310.4 76.172 311.252 76.376 312.008 76.784C312.776 77.18 313.382 77.756 313.826 78.512C314.27 79.256 314.492 80.15 314.492 81.194C314.492 81.302 314.486 81.428 314.474 81.572C314.462 81.704 314.45 81.83 314.438 81.95H306.572V80.312H312.962L311.882 80.798C311.882 80.294 311.78 79.856 311.576 79.484C311.372 79.112 311.09 78.824 310.73 78.62C310.37 78.404 309.95 78.296 309.47 78.296C308.99 78.296 308.564 78.404 308.192 78.62C307.832 78.824 307.55 79.118 307.346 79.502C307.142 79.874 307.04 80.318 307.04 80.834V81.266C307.04 81.794 307.154 82.262 307.382 82.67C307.622 83.066 307.952 83.372 308.372 83.588C308.804 83.792 309.308 83.894 309.884 83.894C310.4 83.894 310.85 83.816 311.234 83.66C311.63 83.504 311.99 83.27 312.314 82.958L313.808 84.578C313.364 85.082 312.806 85.472 312.134 85.748C311.462 86.012 310.688 86.144 309.812 86.144ZM316.361 86V72.644H319.169V86H316.361ZM197.309 105V92.4H203.465C205.049 92.4 206.237 92.7 207.029 93.3C207.833 93.9 208.235 94.692 208.235 95.676C208.235 96.336 208.073 96.912 207.749 97.404C207.425 97.884 206.981 98.256 206.417 98.52C205.853 98.784 205.205 98.916 204.473 98.916L204.815 98.178C205.607 98.178 206.309 98.31 206.921 98.574C207.533 98.826 208.007 99.204 208.343 99.708C208.691 100.212 208.865 100.83 208.865 101.562C208.865 102.642 208.439 103.488 207.587 104.1C206.735 104.7 205.481 105 203.825 105H197.309ZM200.207 102.804H203.609C204.365 102.804 204.935 102.684 205.319 102.444C205.715 102.192 205.913 101.796 205.913 101.256C205.913 100.728 205.715 100.338 205.319 100.086C204.935 99.822 204.365 99.69 203.609 99.69H199.991V97.566H203.105C203.813 97.566 204.353 97.446 204.725 97.206C205.109 96.954 205.301 96.576 205.301 96.072C205.301 95.58 205.109 95.214 204.725 94.974C204.353 94.722 203.813 94.596 203.105 94.596H200.207V102.804ZM216.815 105V103.11L216.635 102.696V99.312C216.635 98.712 216.449 98.244 216.077 97.908C215.717 97.572 215.159 97.404 214.403 97.404C213.887 97.404 213.377 97.488 212.873 97.656C212.381 97.812 211.961 98.028 211.613 98.304L210.605 96.342C211.133 95.97 211.769 95.682 212.513 95.478C213.257 95.274 214.013 95.172 214.781 95.172C216.257 95.172 217.403 95.52 218.219 96.216C219.035 96.912 219.443 97.998 219.443 99.474V105H216.815ZM213.863 105.144C213.107 105.144 212.459 105.018 211.919 104.766C211.379 104.502 210.965 104.148 210.677 103.704C210.389 103.26 210.245 102.762 210.245 102.21C210.245 101.634 210.383 101.13 210.659 100.698C210.947 100.266 211.397 99.93 212.009 99.69C212.621 99.438 213.419 99.312 214.403 99.312H216.977V100.95H214.709C214.049 100.95 213.593 101.058 213.341 101.274C213.101 101.49 212.981 101.76 212.981 102.084C212.981 102.444 213.119 102.732 213.395 102.948C213.683 103.152 214.073 103.254 214.565 103.254C215.033 103.254 215.453 103.146 215.825 102.93C216.197 102.702 216.467 102.372 216.635 101.94L217.067 103.236C216.863 103.86 216.491 104.334 215.951 104.658C215.411 104.982 214.715 105.144 213.863 105.144ZM225.242 105.144C224.414 105.144 223.616 105.048 222.848 104.856C222.092 104.652 221.492 104.4 221.048 104.1L221.984 102.084C222.428 102.36 222.95 102.588 223.55 102.768C224.162 102.936 224.762 103.02 225.35 103.02C225.998 103.02 226.454 102.942 226.718 102.786C226.994 102.63 227.132 102.414 227.132 102.138C227.132 101.91 227.024 101.742 226.808 101.634C226.604 101.514 226.328 101.424 225.98 101.364C225.632 101.304 225.248 101.244 224.828 101.184C224.42 101.124 224.006 101.046 223.586 100.95C223.166 100.842 222.782 100.686 222.434 100.482C222.086 100.278 221.804 100.002 221.588 99.654C221.384 99.306 221.282 98.856 221.282 98.304C221.282 97.692 221.456 97.152 221.804 96.684C222.164 96.216 222.68 95.85 223.352 95.586C224.024 95.31 224.828 95.172 225.764 95.172C226.424 95.172 227.096 95.244 227.78 95.388C228.464 95.532 229.034 95.742 229.49 96.018L228.554 98.016C228.086 97.74 227.612 97.554 227.132 97.458C226.664 97.35 226.208 97.296 225.764 97.296C225.14 97.296 224.684 97.38 224.396 97.548C224.108 97.716 223.964 97.932 223.964 98.196C223.964 98.436 224.066 98.616 224.27 98.736C224.486 98.856 224.768 98.952 225.116 99.024C225.464 99.096 225.842 99.162 226.25 99.222C226.67 99.27 227.09 99.348 227.51 99.456C227.93 99.564 228.308 99.72 228.644 99.924C228.992 100.116 229.274 100.386 229.49 100.734C229.706 101.07 229.814 101.514 229.814 102.066C229.814 102.666 229.634 103.2 229.274 103.668C228.914 104.124 228.392 104.484 227.708 104.748C227.036 105.012 226.214 105.144 225.242 105.144ZM235.633 105.144C234.829 105.144 234.109 104.988 233.473 104.676C232.849 104.364 232.363 103.89 232.015 103.254C231.667 102.606 231.493 101.784 231.493 100.788V95.316H234.301V100.374C234.301 101.178 234.469 101.772 234.805 102.156C235.153 102.528 235.639 102.714 236.263 102.714C236.695 102.714 237.079 102.624 237.415 102.444C237.751 102.252 238.015 101.964 238.207 101.58C238.399 101.184 238.495 100.692 238.495 100.104V95.316H241.303V105H238.639V102.336L239.125 103.11C238.801 103.782 238.321 104.292 237.685 104.64C237.061 104.976 236.377 105.144 235.633 105.144ZM243.904 105V95.316H246.586V98.052L246.208 97.26C246.496 96.576 246.958 96.06 247.594 95.712C248.23 95.352 249.004 95.172 249.916 95.172V97.764C249.796 97.752 249.688 97.746 249.592 97.746C249.496 97.734 249.394 97.728 249.286 97.728C248.518 97.728 247.894 97.95 247.414 98.394C246.946 98.826 246.712 99.504 246.712 100.428V105H243.904ZM256.322 105.144C255.218 105.144 254.246 104.928 253.406 104.496C252.578 104.064 251.936 103.476 251.48 102.732C251.024 101.976 250.796 101.118 250.796 100.158C250.796 99.186 251.018 98.328 251.462 97.584C251.918 96.828 252.536 96.24 253.316 95.82C254.096 95.388 254.978 95.172 255.962 95.172C256.91 95.172 257.762 95.376 258.518 95.784C259.286 96.18 259.892 96.756 260.336 97.512C260.78 98.256 261.002 99.15 261.002 100.194C261.002 100.302 260.996 100.428 260.984 100.572C260.972 100.704 260.96 100.83 260.948 100.95H253.082V99.312H259.472L258.392 99.798C258.392 99.294 258.29 98.856 258.086 98.484C257.882 98.112 257.6 97.824 257.24 97.62C256.88 97.404 256.46 97.296 255.98 97.296C255.5 97.296 255.074 97.404 254.702 97.62C254.342 97.824 254.06 98.118 253.856 98.502C253.652 98.874 253.55 99.318 253.55 99.834V100.266C253.55 100.794 253.664 101.262 253.892 101.67C254.132 102.066 254.462 102.372 254.882 102.588C255.314 102.792 255.818 102.894 256.394 102.894C256.91 102.894 257.36 102.816 257.744 102.66C258.14 102.504 258.5 102.27 258.824 101.958L260.318 103.578C259.874 104.082 259.316 104.472 258.644 104.748C257.972 105.012 257.198 105.144 256.322 105.144ZM262.871 105V95.316H265.553V98.052L265.175 97.26C265.463 96.576 265.925 96.06 266.561 95.712C267.197 95.352 267.971 95.172 268.883 95.172V97.764C268.763 97.752 268.655 97.746 268.559 97.746C268.463 97.734 268.361 97.728 268.253 97.728C267.485 97.728 266.861 97.95 266.381 98.394C265.913 98.826 265.679 99.504 265.679 100.428V105H262.871ZM275.091 105.144C274.059 105.144 273.141 104.928 272.337 104.496C271.545 104.064 270.915 103.476 270.447 102.732C269.991 101.976 269.763 101.118 269.763 100.158C269.763 99.186 269.991 98.328 270.447 97.584C270.915 96.828 271.545 96.24 272.337 95.82C273.141 95.388 274.059 95.172 275.091 95.172C276.111 95.172 277.023 95.388 277.827 95.82C278.631 96.24 279.261 96.822 279.717 97.566C280.173 98.31 280.401 99.174 280.401 100.158C280.401 101.118 280.173 101.976 279.717 102.732C279.261 103.476 278.631 104.064 277.827 104.496C277.023 104.928 276.111 105.144 275.091 105.144ZM275.091 102.84C275.559 102.84 275.979 102.732 276.351 102.516C276.723 102.3 277.017 101.994 277.233 101.598C277.449 101.19 277.557 100.71 277.557 100.158C277.557 99.594 277.449 99.114 277.233 98.718C277.017 98.322 276.723 98.016 276.351 97.8C275.979 97.584 275.559 97.476 275.091 97.476C274.623 97.476 274.203 97.584 273.831 97.8C273.459 98.016 273.159 98.322 272.931 98.718C272.715 99.114 272.607 99.594 272.607 100.158C272.607 100.71 272.715 101.19 272.931 101.598C273.159 101.994 273.459 102.3 273.831 102.516C274.203 102.732 274.623 102.84 275.091 102.84ZM282.475 100.626L281.917 92.4H285.265L284.707 100.626H282.475ZM283.591 105.144C283.087 105.144 282.673 104.982 282.349 104.658C282.025 104.334 281.863 103.95 281.863 103.506C281.863 103.05 282.025 102.672 282.349 102.372C282.673 102.06 283.087 101.904 283.591 101.904C284.107 101.904 284.521 102.06 284.833 102.372C285.157 102.672 285.319 103.05 285.319 103.506C285.319 103.95 285.157 104.334 284.833 104.658C284.521 104.982 284.107 105.144 283.591 105.144Z" fill="white"/>
<circle cx="89" cy="85" r="50" fill="white"/>
<path d="M100.458 85C103.497 85 106.412 86.2072 108.561 88.3561C110.709 90.5049 111.917 93.4194 111.917 96.4583C111.917 99.4973 110.709 102.412 108.561 104.561C106.412 106.709 103.497 107.917 100.458 107.917C97.4194 107.917 94.5049 106.709 92.3561 104.561C90.2072 102.412 89 99.4973 89 96.4583C89 93.4194 90.2072 90.5049 92.3561 88.3561C94.5049 86.2072 97.4194 85 100.458 85ZM100.458 89.1667L100.271 89.1833C100.063 89.2214 99.8711 89.3219 99.7215 89.4715C99.5719 89.6211 99.4714 89.8127 99.4333 90.0208L99.4167 90.2083V95.4167H94.2042L94.0167 95.4354C93.8085 95.4735 93.6169 95.574 93.4673 95.7236C93.3177 95.8732 93.2172 96.0648 93.1792 96.2729L93.1625 96.4604L93.1792 96.6479C93.2172 96.8561 93.3177 97.0477 93.4673 97.1973C93.6169 97.3469 93.8085 97.4474 94.0167 97.4854L94.2042 97.5021H99.4167V102.717L99.4333 102.904C99.4714 103.112 99.5719 103.304 99.7215 103.454C99.8711 103.603 100.063 103.704 100.271 103.742L100.458 103.758L100.646 103.742C100.854 103.704 101.046 103.603 101.195 103.454C101.345 103.304 101.445 103.112 101.483 102.904L101.5 102.717V97.5H106.717L106.904 97.4854C107.112 97.4474 107.304 97.3469 107.454 97.1973C107.603 97.0477 107.704 96.8561 107.742 96.6479L107.758 96.4604L107.742 96.2729C107.704 96.0645 107.603 95.8727 107.453 95.723C107.303 95.5734 107.111 95.4731 106.902 95.4354L106.715 95.4188H101.5V90.2104L101.483 90.0229C101.446 89.8144 101.345 89.6223 101.196 89.4723C101.046 89.3223 100.854 89.2215 100.646 89.1833L100.458 89.1667ZM93.0104 65.2167C93.8272 65.2166 94.6298 65.43 95.3387 65.8356C96.0476 66.2412 96.6383 66.825 97.0521 67.5292L98.7479 70.4188H103.062C104.858 70.4188 106.58 71.1318 107.849 72.4012C109.119 73.6705 109.833 75.3921 109.833 77.1875V86.6875C107.314 84.2643 103.954 82.9126 100.458 82.9167C99.5903 82.9167 98.7444 82.9958 97.9208 83.1542C97.4151 81.5906 96.5074 80.1873 95.2886 79.085C94.0697 77.9827 92.5826 77.2201 90.9763 76.8736C89.3699 76.527 87.7006 76.6087 86.1357 77.1104C84.5709 77.6122 83.1653 78.5164 82.06 79.7324C80.9546 80.9484 80.1882 82.4336 79.8376 84.0391C79.487 85.6446 79.5645 87.3141 80.0622 88.8802C80.56 90.4464 81.4607 91.8542 82.6739 92.9626C83.8871 94.071 85.3704 94.8412 86.975 95.1958C86.6936 98.1983 87.4223 101.209 89.0458 103.75H74.9375C73.1418 103.75 71.4196 103.037 70.1498 101.767C68.88 100.497 68.1667 98.7749 68.1667 96.9792V77.1875C68.1667 75.3918 68.88 73.6696 70.1498 72.3998C71.4196 71.13 73.1418 70.4167 74.9375 70.4167H79.2708L81.0937 67.45C81.5129 66.7671 82.1001 66.2031 82.7993 65.8118C83.4984 65.4204 84.2862 65.2148 85.0875 65.2146L93.0104 65.2167ZM89 79.7917C90.3162 79.7916 91.5988 80.2071 92.6649 80.9789C93.7311 81.7506 94.5264 82.8393 94.9375 84.0896C93.2295 84.8543 91.6979 85.9638 90.4388 87.3483C89.1797 88.7329 88.2204 90.3626 87.6208 92.1354C86.1255 91.7923 84.8086 90.9112 83.9209 89.6598C83.0333 88.4085 82.6369 86.8743 82.8073 85.3496C82.9776 83.8249 83.7029 82.4161 84.8449 81.3916C85.9869 80.367 87.4658 79.7983 89 79.7938" fill="#78C091"/>
<defs>
<filter id="filter0_d_94_91" x="0" y="0" width="405" height="178" filterUnits="userSpaceOnUse" color-interpolation-filters="sRGB">
<feFlood flood-opacity="0" result="BackgroundImageFix"/>
<feColorMatrix in="SourceAlpha" type="matrix" values="0 0 0 0 0 0 0 0 0 0 0 0 0 0 0 0 0 0 127 0" result="hardAlpha"/>
<feOffset dy="4"/>
<feGaussianBlur stdDeviation="2"/>
<feComposite in2="hardAlpha" operator="out"/>
<feColorMatrix type="matrix" values="0 0 0 0 0 0 0 0 0 0 0 0 0 0 0 0 0 0 0.25 0"/>
<feBlend mode="normal" in2="BackgroundImageFix" result="effect1_dropShadow_94_91"/>
<feBlend mode="normal" in="SourceGraphic" in2="effect1_dropShadow_94_91" result="shape"/>
</filter>
</defs>
</svg>
