<?xml version="1.0" encoding="UTF-8"?>
<svg xmlns="http://www.w3.org/2000/svg" viewBox="0 0 498.9175321465 295.9239933432">
  <defs>
    <style>
      .cls-1 {
        isolation: isolate;
      }

      .cls-2, .cls-3 {
        stroke: #000;
        stroke-linecap: round;
        stroke-miterlimit: 10;
        stroke-width: 10px;
      }

      .cls-2, .cls-4 {
        fill: #ad7a40;
      }

      .cls-3 {
        fill: #d89a51;
      }

      .cls-5 {
        fill: #9e6d3c;
        opacity: .25;
      }

      .cls-5, .cls-4 {
        mix-blend-mode: multiply;
      }

      .cls-4 {
        opacity: .5;
      }
    </style>
  </defs>
  <g class="cls-1">
    <g id="Capa_2" data-name="Capa 2">
      <g id="Capa_1-2" data-name="Capa 1">
        <path class="cls-2" d="M197.837758547,290.9239933432l-138.3724095728-31.5850065329c-1.4999070471-.3423700868-2.56376064-1.6764229214-2.56376064-3.214908679V10.1669510166c0-2.131382501,1.991593937-3.702877162,4.0645315675-3.2071746852l136.8716386452,32.7301744586"/>
        <polyline class="cls-2" points="197.837758547 39.68995079 153.4122266321 127.0090997262 7.8803117385 83.3495252581 58.419365481 6.8678413988"/>
        <rect class="cls-3" x="197.837758547" y="39.68995079" width="251.2361696554" height="251.2340425532" rx="1.9646196922" ry="1.9646196922"/>
        <path class="cls-3" d="M197.837758547,39.68995079L89.2858955777,6.8678413988l158.15590891-1.8676407809c1.5684839825-.0185220057,2.8499014188,1.2478526963,2.8499014188,2.8164460368v31.5595855206l-52.4539473595.3137186147h246.2776928606c3.0305562563,0,5.7925122969,1.7381778919,7.1035577774,4.4704719776l39.7535477853,82.8486769586H224.419365481l-26.581606934-87.3191489362"/>
        <path class="cls-2" d="M447.7300457242,39.4552005492L250.6841346134,5.0350962293c-.204850454-.0357834068-.3924287069.1218688722-.3924287069.3298211761v34.0113147699l197.4179924196.3115655836c.1433866381.0002262932.161595434-.2079239135.020347398-.2325972097Z"/>
      </g>
      <g id="soombras">
        <polygon class="cls-4" points="197.837758547 102.7093083042 222.3768122895 163.645478517 447.827098339 165.3069720666 447.284292326 127.0090997262 224.419365481 127.0090997262 197.837758547 41.6545704823 197.837758547 102.7093083042"/>
        <polygon class="cls-5" points="197.837758547 102.7093083042 163.9938335661 165.3069720666 56.9015883342 132.1561168148 56.9015883342 98.0559082368 153.4122266321 127.0090997262 197.837758547 41.6545704823 197.837758547 102.7093083042"/>
        <path class="cls-5" d="M56.9015883342,132.1561168148v126.6382978723l12.485229744,2.8092552882s-5.1728104449-68.0972066201.0725029153-125.5602541616"/>
      </g>
    </g>
  </g>
</svg>